<svg width="280" height="300" viewBox="0 0 280 300" fill="none" xmlns="http://www.w3.org/2000/svg">
<g clip-path="url(#clip0_338_40979)">
<path d="M111.175 18.8734C111.175 18.8734 91.7003 23.2333 92.0872 48.3179C92.5386 73.4025 77.1263 52.6779 64.7449 47.5415C52.3636 42.4051 25.8596 29.0864 18.6372 75.3137C11.4147 121.541 51.0738 176.13 93.3769 200.797C135.68 225.463 166.311 261.836 183.077 272.467C199.844 283.098 245.049 300.359 261.686 270.854C278.324 241.35 255.625 206.411 253.755 185.029C251.949 163.647 234.215 100.757 188.365 58.2323C142.516 15.7079 126.974 14.0954 111.175 18.8734Z" fill="#F0F0E7"/>
<path d="M110.143 18.8732C110.143 18.8732 90.5389 23.2331 90.9903 48.3177C91.4417 73.4023 75.9649 52.6777 63.4546 47.5413C50.9442 42.4049 24.3113 29.0862 17.0244 75.3135C9.73739 121.541 49.719 176.13 92.28 200.796C134.841 225.463 165.666 261.836 182.561 272.467C199.456 283.098 244.919 300.358 261.686 270.854C278.452 241.35 255.56 206.41 253.754 185.029C251.948 163.647 234.086 100.816 187.849 58.2918C141.612 15.7674 126.071 14.0951 110.143 18.8732Z" fill="url(#paint0_linear_338_40979)"/>
<path d="M157.024 134.621C150.318 139.16 141.999 129.186 137.678 123.273C133.358 117.36 124.265 108.64 129.231 103.922C134.196 99.2633 136.776 107.864 142.515 112.701C148.254 117.539 168.825 126.677 157.024 134.621Z" fill="#9BCED3"/>
<path d="M139.033 49.5122C134.713 52.4387 129.425 46.0481 126.652 42.2257C123.879 38.4033 118.075 32.8488 121.235 29.8626C124.395 26.8763 126.071 32.371 129.747 35.4767C133.423 38.5227 146.578 44.3758 139.033 49.5122Z" fill="#FFCC99"/>
<path d="M35.5968 112.522C27.4071 118.017 17.2827 105.953 12.0593 98.666C6.83591 91.3795 -4.25575 80.8082 1.74148 75.1343C7.8032 69.4604 10.963 79.972 17.9276 85.8251C24.9566 91.7379 49.9773 102.787 35.5968 112.522Z" fill="#FFC633"/>
<path d="M82.1562 193.211C86.0254 195.958 89.9591 198.527 93.8928 200.796C100.922 204.857 107.628 209.277 114.013 213.816L115.431 152.956L83.8329 144.236L82.1562 193.211Z" fill="#FFC633"/>
<path d="M41.3997 151.941L42.5605 98.3076L19.9902 105.714C23.537 121.6 31.2109 137.428 41.3997 151.941Z" fill="#ACD6DA"/>
<path d="M234.666 157.615L224.928 160.601C224.09 160.84 223.51 161.616 223.51 162.452V164.901L234.73 168.425V157.615H234.666Z" fill="#0CBC8B"/>
<path d="M234.666 157.615L242.791 160.84C243.759 161.258 244.403 162.094 244.468 163.109L244.661 171.59L234.666 168.425V157.615Z" fill="#1B3B2C"/>
<path d="M224.67 162.453L232.795 160.004V161.975L224.67 164.244V162.453Z" fill="#0CBC8B"/>
<path d="M151.672 192.614L152.188 171.889L185.979 159.586L186.43 181.326L151.672 192.614Z" fill="#FFC235"/>
<path d="M185.979 159.586L250.723 173.801L253.625 192.913L186.43 181.326L185.979 159.586Z" fill="#FFC633"/>
<path d="M218.543 176.548C218.543 176.548 214.868 176.608 214.029 182.759L227.12 185.327C227.12 185.327 224.67 176.906 218.543 176.548Z" fill="#F0F0E7"/>
<path d="M148.705 189.926L186.236 177.265L186.365 181.565L148.383 193.928L148.705 189.926Z" fill="#FF9A09"/>
<path d="M186.236 177.265L255.753 191.001L256.655 195.421L186.365 181.565L186.236 177.265Z" fill="#FFB200"/>
<path d="M152.187 171.89L149.35 169.142L184.172 155.943L185.784 157.496L185.978 159.586L152.187 171.89Z" fill="#FF9A09"/>
<path d="M184.172 155.943L252.205 171.113L251.625 172.188L250.722 173.801L185.977 159.586L184.172 155.943Z" fill="#FFB200"/>
<path d="M218.545 176.548C218.545 176.548 222.93 176.19 225.38 179.116C227.509 181.625 228.476 185.567 228.476 185.567L223.897 184.671C223.897 184.671 224.22 182.461 223.059 179.773C221.898 177.086 218.545 176.548 218.545 176.548Z" fill="#FF9A09"/>
<path d="M256.655 195.421L250.981 199.901L186.946 187.478L186.365 181.565L256.655 195.421Z" fill="#FFD56A"/>
<path d="M254.076 197.452L262.524 247.98L238.148 245.889L231.957 193.51L254.076 197.452Z" fill="#FFC633"/>
<path d="M211.644 190.165L215.384 239.439L190.041 236.751L186.752 185.566L211.644 190.165Z" fill="#FFC633"/>
<path d="M238.147 245.889L229.377 246.666L228.926 243.441L225.186 194.884L231.957 193.51L238.147 245.889Z" fill="#FFB200"/>
<path d="M232.215 196.257L225.637 200.199L225.186 194.884L232.215 196.257Z" fill="#FF9A09"/>
<path d="M186.946 187.478L151.414 198.109L148.383 193.928L186.365 181.565L186.946 187.478Z" fill="#EB8600"/>
<path d="M186.945 187.478L183.85 188.374L186.236 236.154L190.04 236.751L186.945 187.478Z" fill="#FFB200"/>
<path d="M183.851 188.374L151.414 198.109C151.414 198.109 165.666 227.255 186.237 236.154L183.851 188.374Z" fill="#FFC235"/>
<path d="M232.602 199.303C232.602 199.303 231.377 195.839 228.475 193.57L228.41 192.733L231.957 193.51L232.602 199.303Z" fill="#FF9A09"/>
<path d="M228.474 193.57L221.574 194.406L221.51 193.629L228.41 192.733L228.474 193.57Z" fill="#FFC633"/>
<path d="M225.638 200.199L232.602 199.244C232.602 199.244 231.119 195.183 228.475 193.51L221.64 194.346C221.575 194.406 224.284 196.258 225.638 200.199Z" fill="#EB8600"/>
<path d="M212.289 198.647C212.289 198.647 213.902 195.66 216.03 194.406C217.319 193.63 220.092 192.614 220.092 192.614L219.963 191.838L211.645 190.166L212.289 198.647Z" fill="#FF9A09"/>
<path d="M253.044 200.259L259.815 245.173L258.203 245.113L251.689 200.08L253.044 200.259Z" fill="#FFB200"/>
<path d="M248.788 199.363L255.559 244.336L253.947 244.277L247.434 199.244L248.788 199.363Z" fill="#FFB200"/>
<path d="M244.532 198.706L251.368 243.68L249.691 243.56L243.178 198.587L244.532 198.706Z" fill="#FFB200"/>
<path d="M240.276 197.93L247.112 242.843L245.435 242.783L238.986 197.75L240.276 197.93Z" fill="#FFB200"/>
<path d="M236.085 197.392L242.856 242.366L241.244 242.306L234.73 197.273L236.085 197.392Z" fill="#FFB200"/>
<path d="M208.161 192.315L211.708 236.751L210.095 236.691L206.871 192.136L208.161 192.315Z" fill="#FFB200"/>
<path d="M204.227 191.479L207.581 235.855L205.968 235.795L202.938 191.36L204.227 191.479Z" fill="#FFB200"/>
<path d="M200.294 190.823L203.389 235.139L201.777 235.079L199.068 190.703L200.294 190.823Z" fill="#FFB200"/>
<path d="M196.36 190.046L199.262 234.303L197.65 234.183L195.135 189.927L196.36 190.046Z" fill="#FFB200"/>
<path d="M192.491 189.568L195.135 233.765L193.523 233.645L191.266 189.449L192.491 189.568Z" fill="#FFB200"/>
<path d="M230.022 241.23L216.738 244.336L217.706 254.788L236.149 256.819L231.312 253.176L230.022 241.23Z" fill="#0CBC8B"/>
<path d="M220.543 240.156L222.542 255.326L179.53 249.831L178.949 233.108L186.172 234.362L220.543 240.156Z" fill="#0CBC8B"/>
<path d="M231.312 253.175C232.602 253.295 279.097 257.476 279.097 257.476L280 260.76L231.957 256.46L231.312 253.175Z" fill="#0CBC8B"/>
<path d="M147.932 241.29L179.53 246.307V249.831L222.542 255.266L267.812 259.626C267.812 259.626 264.007 289.011 230.087 287.159C196.167 285.308 175.016 265.538 172.759 263.568C170.502 261.656 147.932 241.29 147.932 241.29Z" fill="#0CBC8B"/>
<path d="M185.462 219.849L182.625 219.013L184.044 237.468L186.688 237.826L185.462 219.849Z" fill="#0CBC8B"/>
<path d="M145.61 15.1106C153.67 27.5335 146.319 32.9088 145.287 33.3866C140.257 35.6561 139.226 30.9976 135.679 27.8919C132.068 24.7861 131.229 19.2317 124.845 11.5271C118.525 3.82257 125.812 -2.98611 130.584 1.37384C130.649 1.37384 141.483 8.36169 145.61 15.1106Z" fill="#9BCED3"/>
<path d="M218.028 288.652C207.388 278.081 213.32 271.391 214.159 270.734C218.608 267.569 220.607 271.929 224.799 274.258C228.991 276.588 231.119 281.843 239.051 288.174C246.982 294.505 241.372 302.568 235.762 299.223C235.826 299.164 223.638 294.445 218.028 288.652Z" fill="#FFC235"/>
<path d="M108.66 85.885V74.4178C108.66 74.4178 109.885 73.4025 112.981 75.1345C116.076 76.8068 120.01 82.3015 127.232 82.7793C134.455 83.2571 135.873 84.7503 135.873 84.7503L137.357 98.3079C137.357 98.3079 135.551 96.337 129.489 95.5008C123.492 94.7244 123.17 94.9036 120.655 94.3063C115.044 92.9326 108.596 87.5574 108.596 87.5574L108.66 85.885Z" fill="#0CBC8B"/>
<path d="M108.983 115.091L108.531 74.4776C108.531 74.4776 109.047 73.6414 110.788 74.4776V115.807L108.983 115.091Z" fill="#0CBC8B"/>
<path d="M58.7461 83.7944L70.3536 90.6628V95.3811L58.7461 99.0244V83.7944Z" fill="#7EC0C6"/>
<path d="M62.293 93.709V98.4273L74.1585 95.023V90.4839L62.293 93.709Z" fill="#ACD6DA"/>
<path d="M74.6745 94.0073L58.7464 99.0243L58.2305 113.119L74.6745 109.237V94.0073Z" fill="#9BCED3"/>
<path d="M37.4668 146.029L41.0136 122.855L86.154 110.731L83.9615 138.742L37.4668 146.029Z" fill="#FFC235"/>
<path d="M86.1554 110.731L167.795 136.174L169.085 161.139L83.9629 138.742L86.1554 110.731Z" fill="#FFC633"/>
<path d="M125.943 136.114C125.943 136.114 121.235 135.816 119.365 143.64L135.874 148.418C135.874 148.418 133.81 137.249 125.943 136.114Z" fill="#F0F0E7"/>
<path d="M84.2209 133.546L172.18 158.81L172.696 164.663L83.834 139.1L84.2209 133.546Z" fill="#FFB200"/>
<path d="M41.0134 122.855L37.6602 118.973L84.2194 105.773L86.1539 107.983V110.731L41.0134 122.855Z" fill="#FF9A09"/>
<path d="M84.2207 105.773L170.117 132.829L169.214 134.143L167.795 136.174L86.1553 110.731L84.2207 105.773Z" fill="#FFB200"/>
<path d="M125.943 136.114C125.943 136.114 131.618 136.114 134.391 140.176C136.777 143.64 137.551 148.895 137.551 148.895L131.747 147.223C131.747 147.223 132.456 144.416 131.231 140.773C130.07 137.189 125.943 136.114 125.943 136.114Z" fill="#FF9A09"/>
<path d="M172.696 164.663L164.829 169.799L83.834 146.745V139.1L172.696 164.663Z" fill="#FFD56A"/>
<path d="M169.149 166.992L173.534 233.108L142.452 227.733L141.098 159.467L169.149 166.992Z" fill="#FFC633"/>
<path d="M142.451 227.733H130.973L130.844 223.552L132.198 160.542L141.097 159.467L142.451 227.733Z" fill="#FFB200"/>
<path d="M141.096 163.05L132.068 167.41L132.197 160.542L141.096 163.05Z" fill="#FF9A09"/>
<path d="M141.227 166.992C141.227 166.992 140.066 162.333 136.648 159.168V158.093L141.162 159.466L141.227 166.992Z" fill="#FF9A09"/>
<path d="M136.583 159.168L127.619 159.466V158.451L136.647 158.093L136.583 159.168Z" fill="#FFC633"/>
<path d="M132.07 167.41L141.227 166.992C141.227 166.992 139.808 161.617 136.648 159.168L127.685 159.467C127.62 159.467 130.844 162.214 132.07 167.41Z" fill="#EB8600"/>
<path d="M115.109 164.006C115.109 164.006 117.56 160.303 120.462 158.929C122.203 158.093 125.943 157.018 125.943 157.018L125.879 156.003L115.367 152.957L115.109 164.006Z" fill="#FF9A09"/>
<path d="M167.407 170.456L170.438 229.166L168.374 228.927L165.73 170.098L167.407 170.456Z" fill="#FFB200"/>
<path d="M162.056 168.903L165.086 227.613L162.958 227.374L160.379 168.545L162.056 168.903Z" fill="#FFB200"/>
<path d="M156.702 167.589L159.668 226.299L157.605 226.001L154.961 167.231L156.702 167.589Z" fill="#FFB200"/>
<path d="M151.286 166.096L154.317 224.806L152.253 224.507L149.609 165.738L151.286 166.096Z" fill="#FFB200"/>
<path d="M145.932 164.961L148.963 223.671L146.835 223.432L144.256 164.603L145.932 164.961Z" fill="#FFB200"/>
<mask id="mask0_338_40979" style="mask-type:alpha" maskUnits="userSpaceOnUse" x="17" y="17" width="251" height="271">
<path d="M111.175 18.8734C111.175 18.8734 91.7003 23.2333 92.0872 48.3179C92.5386 73.4025 77.1263 52.6779 64.7449 47.5415C52.3636 42.4051 25.8596 29.0864 18.6372 75.3137C11.4147 121.541 51.0738 176.13 93.3769 200.797C135.68 225.463 166.311 261.836 183.077 272.467C199.844 283.098 245.049 300.359 261.686 270.854C278.324 241.35 255.625 206.411 253.755 185.029C251.949 163.647 234.215 100.757 188.365 58.2323C142.516 15.7079 126.974 14.0954 111.175 18.8734Z" fill="#F0F0E7"/>
</mask>
<g mask="url(#mask0_338_40979)">
<path d="M110.531 155.286L109.499 213.04L107.371 212.742L108.983 154.987L110.531 155.286Z" fill="#FFB200"/>
<path d="M105.564 153.793L104.21 211.428L102.146 211.129L104.017 153.494L105.564 153.793Z" fill="#FFB200"/>
<path d="M100.6 152.538L98.9229 210.054L96.8594 209.755L99.0519 152.24L100.6 152.538Z" fill="#FFB200"/>
<path d="M95.6349 151.105L93.7003 208.501L91.6367 208.203L94.0872 150.807L95.6349 151.105Z" fill="#FFB200"/>
<path d="M90.6683 150.09L88.4112 207.366L86.3477 207.068L89.1206 149.731L90.6683 150.09Z" fill="#FFB200"/>
</g>
<path d="M164.763 138.981L163.666 138.682L155.477 136.293L155.606 150.269L165.214 152.956L164.763 138.981Z" fill="#FFB200"/>
<path d="M182.626 219.013L172.695 220.685L173.534 235.557L184.045 237.707L182.626 219.013Z" fill="#0CBC8B"/>
<path d="M142.322 222.835L178.886 230.002L179.531 234.302L142.451 227.732L142.322 222.835Z" fill="#355647"/>
<path d="M142.322 222.835L128.264 224.627L133.1 228.569L142.451 227.732L142.322 222.835Z" fill="#0CBC8B"/>
<path d="M142.451 227.732L183.851 235.019L184.174 239.439L142.451 232.51V227.732Z" fill="#0CBC8B"/>
<path d="M142.45 227.732V232.51L138.259 232.869L133.1 228.569L142.45 227.732Z" fill="#355647"/>
<path d="M142.451 232.51L187.334 239.976L187.979 243.978L142.709 236.751L142.451 232.51Z" fill="#355647"/>
<path d="M142.709 236.751C144.192 236.99 201.069 246.008 201.069 246.008L201.908 249.891L147.932 241.29L142.709 236.751Z" fill="#0CBC8B"/>
<path d="M230.023 241.23L262.009 245.292L262.847 248.935L230.475 245.471L230.023 241.23Z" fill="#355647"/>
<path d="M230.475 245.471L266.716 249.293L267.232 253.175L230.797 249.592L230.475 245.471Z" fill="#0CBC8B"/>
<path d="M230.797 249.592L270.005 253.414L270.843 256.819L231.313 253.175L230.797 249.592Z" fill="#355647"/>
<path d="M187.011 237.826L184.045 237.468L184.174 239.439L187.334 239.976L187.011 237.826Z" fill="#2A783B"/>
<path d="M163.344 138.562L164.762 138.981L165.214 152.956L163.666 152.538L163.344 138.562Z" fill="#FF9A09"/>
<path d="M248.337 177.503L247.563 177.384L241.824 176.249L242.92 185.686L249.563 186.94L248.337 177.503Z" fill="#FFB200"/>
<path d="M247.369 177.324L248.336 177.503L249.562 186.94L248.53 186.701L247.369 177.324Z" fill="#FF9A09"/>
<path d="M238.728 175.652L237.954 175.473L232.215 174.398L233.311 183.835L239.953 185.029L238.728 175.652Z" fill="#FFB200"/>
<path d="M237.76 175.473L238.727 175.652L239.952 185.029L238.921 184.85L237.76 175.473Z" fill="#FF9A09"/>
<path d="M207.839 169.739L207.13 169.62L201.391 168.485L202.422 177.921L209.129 179.176L207.839 169.739Z" fill="#FFB200"/>
<path d="M206.871 169.56L207.838 169.739L209.128 179.176L208.096 178.997L206.871 169.56Z" fill="#FF9A09"/>
<path d="M198.425 167.649L197.265 167.41L191.525 166.335L191.912 175.652L199.264 177.026L198.425 167.649Z" fill="#FFB200"/>
<path d="M197.523 167.47L198.426 167.649L199.265 177.026L198.168 176.787L197.523 167.47Z" fill="#FF9A09"/>
<path d="M152.768 135.517L151.672 135.218L143.418 132.889L143.611 146.805L153.22 149.492L152.768 135.517Z" fill="#FFB200"/>
<path d="M151.35 135.158L152.768 135.517L153.22 149.492L151.672 149.074L151.35 135.158Z" fill="#FF9A09"/>
<path d="M113.368 123.631L112.336 123.333L104.082 120.944L104.211 134.92L113.819 137.607L113.368 123.631Z" fill="#FFB200"/>
<path d="M112.014 123.213L113.368 123.631L113.819 137.607L112.336 137.189L112.014 123.213Z" fill="#FF9A09"/>
<path d="M100.083 119.57L98.9866 119.271L90.7969 116.882L90.9258 130.858L100.534 133.546L100.083 119.57Z" fill="#FFB200"/>
<path d="M98.6641 119.152L100.083 119.57L100.534 133.546L98.9865 133.128L98.6641 119.152Z" fill="#FF9A09"/>
<path d="M79.77 147.581L78.8672 140.235L83.8326 139.1V146.745L79.77 147.581Z" fill="#FFB200"/>
<g style="mix-blend-mode:multiply">
<path d="M176.629 158.75L177.983 162.512L178.37 180.251V184.192L179.531 189.687V220.087L172.695 220.685L169.148 166.992L172.695 164.662L172.308 160.541L176.629 158.75Z" fill="#FFDEAF"/>
</g>
<mask id="mask1_338_40979" style="mask-type:alpha" maskUnits="userSpaceOnUse" x="17" y="17" width="251" height="271">
<path d="M111.175 18.8734C111.175 18.8734 91.7003 23.2333 92.0872 48.3179C92.5386 73.4025 77.1263 52.6779 64.7449 47.5415C52.3636 42.4051 25.8596 29.0864 18.6372 75.3137C11.4147 121.541 51.0738 176.13 93.3769 200.797C135.68 225.463 166.311 261.836 183.077 272.467C199.844 283.098 245.049 300.359 261.686 270.854C278.324 241.35 255.625 206.411 253.755 185.029C251.949 163.647 234.215 100.757 188.365 58.2323C142.516 15.7079 126.974 14.0954 111.175 18.8734Z" fill="#F0F0E7"/>
</mask>
<g mask="url(#mask1_338_40979)">
<path d="M223.252 129.485C223.252 129.485 241.953 136.174 264.975 132.352C264.975 132.352 269.037 110.432 258.268 106.073C250.981 103.086 240.083 101.832 240.083 101.832L223.252 129.485Z" fill="url(#paint1_linear_338_40979)"/>
<path d="M198.361 83.9742C198.361 83.9742 203.133 83.9144 209.904 88.4536C216.675 92.9927 224.671 95.3817 229.379 97.8901C234.086 100.399 240.922 101.713 242.147 102.608C243.372 103.504 254.786 116.524 237.181 126.857C219.577 137.189 204.745 117.241 198.877 113.478C193.073 109.716 195.91 93.2913 198.361 83.9742Z" fill="#FFB66D"/>
<path d="M173.211 105.594C173.211 105.594 181.272 90.4838 180.756 89.3491C180.24 88.274 177.918 86.96 179.595 86.2433C181.272 85.5266 185.205 84.2724 187.591 84.8099C189.977 85.3475 194.234 85.7058 194.234 85.7058C194.234 85.7058 197.716 83.9738 201.391 86.9003C205.132 89.8269 207.905 96.1577 209.259 96.9342C210.613 97.7106 217.384 98.7259 219.577 102.369C221.769 105.953 212.999 110.492 212.161 110.432C211.322 110.432 201.843 112.821 198.812 113.418C195.781 114.016 186.56 117.599 184.045 119.331C181.659 121.123 173.34 110.253 173.211 105.594Z" fill="#FFB66D"/>
<g style="mix-blend-mode:multiply">
<path d="M180.369 102.668C180.369 102.668 178.692 105.953 179.402 108.402C179.853 109.954 185.915 118.435 185.915 118.435L188.688 117.181C188.688 117.181 185.979 111.925 183.722 110.731L182.884 110.313C182.884 110.313 183.593 106.729 183.4 105.833C183.206 104.938 180.369 102.668 180.369 102.668Z" fill="#FFC675"/>
</g>
<path d="M194.555 108.939L199.133 99.0249L204.808 107.207C204.808 107.207 199.778 109.477 194.555 108.939Z" fill="#0CBC8B"/>
<path d="M194.557 108.939C194.557 108.939 197.201 106.072 201.263 106.192C205.39 106.311 206.551 108.879 206.551 108.879L220.351 135.636C223.447 141.609 226.993 148.178 210.872 152.956C201.199 155.823 190.945 151.702 187.399 148.537C185.464 146.805 184.69 144.296 185.4 141.907L194.557 108.939Z" fill="#0CBC8B"/>
<g style="mix-blend-mode:multiply">
<path d="M197.973 104.221C197.973 104.221 198.102 109.716 199.972 110.253C201.842 110.791 204.744 109.955 206.227 106.55C207.71 103.146 206.292 99.6818 206.356 97.5317C206.421 95.4413 203.583 90.2452 200.875 89.5882C198.102 88.991 195.974 98.1887 197.973 104.221Z" fill="#FFC675"/>
</g>
<path d="M219.125 105.176C219.125 105.176 219.769 111.328 217.319 115.509C214.868 119.63 212.611 120.765 212.611 120.765L208.678 114.135L219.125 105.176Z" fill="#FF9B37"/>
<path d="M218.61 107.207C218.61 107.207 220.674 103.504 219.319 100.399C217.965 97.2928 215.321 93.7691 213.516 92.6343L209.582 94.7844C209.582 94.7844 212.806 98.6665 209.582 100.996C209.582 101.056 215.708 106.252 218.61 107.207Z" fill="url(#paint2_linear_338_40979)"/>
<path d="M205.003 103.385C203.713 104.221 202.101 106.132 203.519 108.76C204.938 111.388 205.905 112.881 208.549 113.777C211.193 114.673 212.483 114.494 214.676 112.761C216.868 111.029 218.48 107.506 219.125 106.013C219.77 104.519 214.998 100.1 212.999 100.219C211 100.279 208.291 101.414 205.003 103.385Z" fill="#FFCC99"/>
<path d="M171.986 107.267C171.986 107.267 166.053 108.76 166.053 113.001C166.053 117.241 168.116 119.809 170.889 121.78C173.662 123.692 179.143 125.662 180.756 125.961C182.368 126.26 184.496 123.453 181.723 121.123C178.95 118.794 174.887 113.538 174.629 112.642C174.371 111.746 171.986 107.267 171.986 107.267Z" fill="#FFCC99"/>
<path d="M170.76 107.685C170.76 107.685 168.181 109.059 169.47 113.598C170.76 118.137 180.498 120.108 180.498 120.108L170.76 107.685Z" fill="#FFA54B"/>
<path d="M176.628 94.187C175.338 94.5454 170.502 99.622 170.502 103.206C170.502 106.789 171.018 112.881 174.823 116.106C178.627 119.331 181.916 121.183 184.044 121.601C186.108 122.019 188.365 118.316 183.786 113.777C179.208 109.238 179.272 106.49 179.53 105.833C179.788 105.117 181.336 100.697 181.078 98.547C180.755 96.2177 176.628 94.187 176.628 94.187Z" fill="#FFCC99"/>
<path d="M201.391 91.4395C201.391 91.4395 203.648 91.1408 203.777 88.8713C203.906 86.6017 204.422 85.885 200.746 84.4516C197.07 83.0779 192.75 84.7503 191.847 86.4226C190.944 88.0949 199.07 92.0965 201.391 91.4395Z" fill="#FFCC99"/>
<path d="M197.521 81.585C197.521 81.585 201.52 83.3767 206.614 86.5422C211.709 89.7076 213.966 92.5147 213.966 92.5147C213.966 92.5147 211.386 93.8286 208.742 93.2911C206.098 92.6939 200.81 89.6479 200.81 89.6479L197.521 81.585Z" fill="url(#paint3_linear_338_40979)"/>
<path d="M188.236 92.3951C188.236 92.3951 192.621 93.6494 194.04 91.6784C195.459 89.7075 192.557 85.5268 191.525 85.4073C190.493 85.2879 189.074 83.9142 185.076 84.7503C181.078 85.5865 180.369 84.9892 177.789 87.7963C175.21 90.6034 188.236 92.3951 188.236 92.3951Z" fill="url(#paint4_linear_338_40979)"/>
<path d="M193.395 81.7044C193.395 81.7044 189.268 85.049 191.332 92.5744C193.395 100.1 192.879 102.668 194.556 103.803C196.233 104.997 201.907 103.922 203.068 101.832C204.229 99.8012 203.52 96.6357 202.423 94.3065C201.327 91.9772 199.715 82.242 197.522 81.5253C195.33 80.8683 193.395 81.7044 193.395 81.7044Z" fill="#FFCC99"/>
<path d="M204.81 115.151C204.81 115.151 210.807 127.812 211.516 129.485C212.612 132.113 214.289 132.471 214.74 131.635C215.192 130.799 209.324 118.495 208.743 117.241C208.098 115.987 204.745 112.224 204.81 115.151Z" fill="#0CBC8B"/>
<path d="M180.047 103.982C180.047 103.982 178.048 99.9204 175.662 98.6065C173.276 97.2925 176.887 95.9188 178.048 96.755C179.208 97.5911 180.95 100.279 180.885 100.577C180.821 100.757 180.047 103.982 180.047 103.982Z" fill="#FFA54B"/>
<g style="mix-blend-mode:multiply">
<path d="M189.784 97.5317C189.784 97.5317 195.782 106.968 197.329 109.357C198.941 111.746 198.425 114.374 196.104 114.912C193.847 115.449 188.881 108.461 187.979 104.878C187.14 101.294 189.784 97.5317 189.784 97.5317Z" fill="#FFC675"/>
</g>
<path d="M179.594 86.2435C179.594 86.2435 176.37 88.1548 176.047 91.3799C175.725 94.5454 183.076 107.625 184.624 111.209C186.172 114.792 189.912 119.331 192.169 120.586C194.426 121.84 197.263 117.898 195.909 114.076C194.555 110.253 192.685 108.641 192.169 106.013C191.653 103.385 188.3 92.455 187.075 88.6325C185.785 84.8101 181.142 84.9893 179.594 86.2435Z" fill="#FFCC99"/>
<path d="M193.652 98.6664C193.652 98.6664 193.91 101.115 194.233 101.951C194.555 102.728 196.619 102.847 198.037 102.489C199.456 102.19 201.52 101.951 201.391 100.279C201.262 98.6067 200.875 97.5317 200.488 97.1136C200.101 96.6955 194.233 97.1733 193.652 98.6664Z" fill="white"/>
<path d="M189.333 117.002C189.333 117.002 191.203 119.391 191.977 119.511C192.751 119.63 194.427 118.495 194.879 117.779C195.33 117.062 194.17 114.912 193.783 114.553C193.331 114.195 189.204 115.748 189.333 117.002Z" fill="white"/>
<path d="M180.691 119.57C180.691 119.57 182.626 120.705 183.593 120.646C184.56 120.586 185.141 119.152 185.012 118.316C184.883 117.48 183.528 116.524 183.013 116.584C182.497 116.644 180.627 118.913 180.691 119.57Z" fill="#F0F0E7"/>
<path d="M178.306 124.826C178.306 124.826 179.982 125.483 180.756 125.304C181.53 125.125 181.788 123.93 181.53 123.273C181.272 122.616 180.111 122.079 179.724 122.198C179.338 122.258 178.112 124.289 178.306 124.826Z" fill="#F0F0E7"/>
<path d="M208.549 104.52C208.291 104.52 205.97 104.997 205.776 106.073C205.583 107.148 209.645 112.642 211.838 111.448C214.03 110.253 213.773 109.775 213.773 109.238C213.773 108.7 211.322 104.46 208.549 104.52Z" fill="#F0F0E7"/>
<path d="M201.391 91.4399C201.391 91.4399 200.617 89.0509 200.552 88.0952C200.488 87.1396 202.616 90.1856 202.809 90.7829C203.067 91.4399 201.391 91.4399 201.391 91.4399Z" fill="#FFA54B"/>
<path d="M205.224 154.236C215.696 153.458 223.771 148.029 223.258 142.111C222.745 136.193 213.84 132.026 203.367 132.804C192.894 133.582 184.82 139.011 185.333 144.93C185.845 150.848 194.751 155.015 205.224 154.236Z" fill="#1B3B2C"/>
</g>
<path d="M109.627 102.907L99.8894 105.893C99.0511 106.132 98.4707 106.908 98.4707 107.744V110.193L109.691 113.717V102.907H109.627Z" fill="#0CBC8B"/>
<path d="M109.627 102.907L117.752 106.132C118.72 106.55 119.364 107.386 119.429 108.401L119.622 116.882L109.627 113.717V102.907Z" fill="#1B3B2C"/>
<path d="M99.6309 107.745L107.756 105.296V107.267L99.6309 109.536V107.745Z" fill="#0CBC8B"/>
<path d="M58.7468 83.7944L43.1411 88.7516L42.3027 103.563L58.7468 99.0244V83.7944Z" fill="#9BCED3"/>
<path d="M74.1585 89.0503L62.293 92.2157V93.7089L74.1585 90.4837V89.0503Z" fill="#C4E2E5"/>
<path d="M74.1602 89.0503L84.0266 93.2908V94.9034L74.1602 90.4837V89.0503Z" fill="#7EC0C6"/>
<path d="M74.1602 95.023L84.0266 99.0246V94.9036L74.1602 90.4839V95.023Z" fill="#9BCED3"/>
<path d="M58.7469 99.0244L42.3029 103.564L41.9805 117.778L58.231 113.12L58.7469 99.0244Z" fill="#7EC0C6"/>
<path d="M74.6758 94.0073L88.5404 100.517V107.087L84.2198 105.773L74.6758 108.461V94.0073Z" fill="#7EC0C6"/>
<path d="M55.6526 102.13L43.8516 105.296V106.789L55.6526 103.564V102.13Z" fill="#C4E2E5"/>
<path d="M55.6517 104.997L49.2676 106.55V108.043L55.6517 106.43V104.997Z" fill="#9BCED3"/>
<path d="M56.2971 87.0796L44.4316 90.245V91.6784L56.2971 88.513V87.0796Z" fill="#C4E2E5"/>
<path d="M56.4264 90.1851L51.3965 91.4393V92.8727L56.4264 91.6185V90.1851Z" fill="#C4E2E5"/>
<path d="M55.6526 107.804L43.8516 110.97V112.463L55.6526 109.238V107.804Z" fill="#9BCED3"/>
<path d="M127.232 82.7791C127.232 82.7791 122.653 83.675 119.042 82.5402C115.431 81.4652 117.043 79.0164 117.881 78.897C117.881 78.897 119.558 80.5693 122.009 81.4054C124.459 82.3013 127.232 82.7791 127.232 82.7791Z" fill="#0CBC8B"/>
<path d="M77.6425 189.867L79.7061 147.521L43.6582 155.047C53.3957 168.246 65.1322 180.251 77.6425 189.867Z" fill="#FFC235"/>
<g style="mix-blend-mode:multiply">
<path d="M36.8867 145.073C40.1755 150.269 43.7223 155.286 47.5915 160.183C49.2036 156.421 50.0419 152.957 50.0419 152.957L46.4307 147.82L47.4625 142.505C57.1999 135.457 58.8121 116.883 58.8121 116.883L56.6196 113.598L37.725 118.973L41.0138 122.855L37.725 144.894L36.8867 145.073Z" fill="#FFDEAF"/>
</g>
<path d="M43.6564 155.047L83.7669 146.685V139.041L39.6582 149.313C40.9479 151.284 42.3021 153.195 43.6564 155.047Z" fill="#EB8600"/>
<path d="M84.2198 133.546L36.8223 145.073C37.7251 146.506 38.6924 147.94 39.5952 149.373L83.7039 139.1L84.2198 133.546Z" fill="#FF9A09"/>
<path d="M82.1566 193.211L83.8332 146.685L79.7706 147.521L77.707 189.866C79.1257 191.061 80.6734 192.136 82.1566 193.211Z" fill="#FFB200"/>
<path d="M240.533 284.471C240.533 284.471 242.726 287.995 246.402 289.727C250.013 291.459 252.399 287.816 249.433 284.77C246.466 281.724 243.887 278.917 241.436 279.574C239.824 279.992 239.05 282.5 240.533 284.471Z" fill="#FFB200"/>
</g>
<defs>
<linearGradient id="paint0_linear_338_40979" x1="143.551" y1="184.332" x2="155.178" y2="333.794" gradientUnits="userSpaceOnUse">
<stop offset="0.00200123" stop-color="white" stop-opacity="0"/>
<stop offset="1" stop-color="#93CAD0"/>
</linearGradient>
<linearGradient id="paint1_linear_338_40979" x1="289.159" y1="132.865" x2="244.37" y2="116.491" gradientUnits="userSpaceOnUse">
<stop offset="0.00200123" stop-color="white" stop-opacity="0"/>
<stop offset="1" stop-color="#FFB66D"/>
</linearGradient>
<linearGradient id="paint2_linear_338_40979" x1="213.943" y1="94.979" x2="214.873" y2="105.08" gradientUnits="userSpaceOnUse">
<stop offset="0.00200123" stop-color="white" stop-opacity="0"/>
<stop offset="1" stop-color="#FFCC99"/>
</linearGradient>
<linearGradient id="paint3_linear_338_40979" x1="210.092" y1="92.3969" x2="201.63" y2="85.6578" gradientUnits="userSpaceOnUse">
<stop offset="0.00200123" stop-color="white" stop-opacity="0"/>
<stop offset="1" stop-color="#FFCC99"/>
</linearGradient>
<linearGradient id="paint4_linear_338_40979" x1="193.292" y1="89.3203" x2="183.588" y2="87.4989" gradientUnits="userSpaceOnUse">
<stop offset="0.00200123" stop-color="white" stop-opacity="0"/>
<stop offset="1" stop-color="#FFCC99"/>
</linearGradient>
<clipPath id="clip0_338_40979">
<rect width="280" height="300" fill="white"/>
</clipPath>
</defs>
</svg>
